<svg width="15" height="14" viewBox="0 0 15 14" fill="none" xmlns="http://www.w3.org/2000/svg">
<path d="M13.5323 11.0495V11.75C13.5323 12.5207 12.9018 13.1512 12.1312 13.1512H2.32325C1.54562 13.1512 0.922119 12.5207 0.922119 11.75V1.94213C0.922119 1.17151 1.54562 0.541 2.32325 0.541H12.1312C12.9018 0.541 13.5323 1.17151 13.5323 1.94213V2.6427H7.2272C6.44958 2.6427 5.82607 3.2732 5.82607 4.04383V9.64834C5.82607 10.419 6.44958 11.0495 7.2272 11.0495H13.5323ZM7.2272 9.64834H14.2329V4.04383H7.2272V9.64834ZM10.0295 7.89693C9.448 7.89693 8.97862 7.42755 8.97862 6.84609C8.97862 6.26462 9.448 5.79524 10.0295 5.79524C10.6109 5.79524 11.0803 6.26462 11.0803 6.84609C11.0803 7.42755 10.6109 7.89693 10.0295 7.89693Z" fill="#58585B"/>
</svg>
