<svg width="69" height="69" viewBox="0 0 69 69" fill="none" xmlns="http://www.w3.org/2000/svg">
<path d="M34.5 69C15.4457 69 0 53.5543 0 34.5C0 15.4457 15.4457 0 34.5 0C53.5543 0 69 15.4457 69 34.5C69 53.5543 53.5543 69 34.5 69ZM22.425 41.4V48.3H31.05V55.2H37.95V48.3H41.4C43.6875 48.3 45.8813 47.3913 47.4988 45.7738C49.1163 44.1563 50.025 41.9625 50.025 39.675C50.025 37.3875 49.1163 35.1937 47.4988 33.5762C45.8813 31.9587 43.6875 31.05 41.4 31.05H27.6C27.1425 31.05 26.7037 30.8683 26.3802 30.5448C26.0567 30.2213 25.875 29.7825 25.875 29.325C25.875 28.8675 26.0567 28.4287 26.3802 28.1052C26.7037 27.7817 27.1425 27.6 27.6 27.6H46.575V20.7H37.95V13.8H31.05V20.7H27.6C25.3125 20.7 23.1187 21.6087 21.5012 23.2262C19.8837 24.8437 18.975 27.0375 18.975 29.325C18.975 31.6125 19.8837 33.8063 21.5012 35.4238C23.1187 37.0413 25.3125 37.95 27.6 37.95H41.4C41.8575 37.95 42.2963 38.1317 42.6198 38.4552C42.9433 38.7787 43.125 39.2175 43.125 39.675C43.125 40.1325 42.9433 40.5713 42.6198 40.8948C42.2963 41.2183 41.8575 41.4 41.4 41.4H22.425Z" fill="white"/>
</svg>
