<svg width="80" height="80" viewBox="0 0 80 80" fill="none" xmlns="http://www.w3.org/2000/svg">
<path d="M44.0267 28.2266H49.99C50.8168 28.2272 51.6306 28.4329 52.3585 28.8251C53.0863 29.2174 53.7056 29.7841 54.1607 30.4744C54.6158 31.1647 54.8927 31.9571 54.9664 32.7806C55.0402 33.6041 54.9086 34.4331 54.5833 35.1933L41.3833 66.0033C41.0647 66.741 40.5016 67.3465 39.7889 67.7178C39.0763 68.0891 38.2574 68.2036 37.4702 68.042C36.683 67.8804 35.9755 67.4526 35.4667 66.8306C34.9579 66.2085 34.6789 65.4302 34.6767 64.6266V41.56L29.8333 41.41C28.5364 41.3667 27.307 40.8209 26.4051 39.8878C25.5031 38.9548 24.9993 37.7077 25 36.41V16.6666C25 15.3405 25.5268 14.0688 26.4645 13.1311C27.4021 12.1934 28.6739 11.6666 30 11.6666H39.0267C40.3528 11.6666 41.6245 12.1934 42.5622 13.1311C43.4999 14.0688 44.0267 15.3405 44.0267 16.6666V28.2266Z" fill="white"/>
</svg>
