<svg width="65" height="65" viewBox="0 0 65 65" fill="none" xmlns="http://www.w3.org/2000/svg">
<g clip-path="url(#clip0)">
<path d="M17.2656 38.0859C19.0185 38.0859 20.4395 36.665 20.4395 34.9121C20.4395 33.1593 19.0185 31.7383 17.2656 31.7383C15.5128 31.7383 14.0918 33.1593 14.0918 34.9121C14.0918 36.665 15.5128 38.0859 17.2656 38.0859Z" fill="white"/>
<path d="M43.291 26.8774V44.5422L64.8731 52.6354V32.2729L43.291 26.8774Z" fill="white"/>
<path d="M34.4043 27.0947V39.8899C34.4043 40.6838 34.8967 41.3942 35.6399 41.673L39.4824 43.1139V25.9252L36.7704 25.2472C35.5686 24.9468 34.4043 25.8558 34.4043 27.0947Z" fill="white"/>
<path d="M34.3026 45.2391C32.0729 44.4029 30.5957 42.2713 30.5957 39.8899V27.0948C30.5957 23.3782 34.0886 20.6511 37.6941 21.5526L64.8281 28.3359C64.4335 20.945 61.3685 14.0518 56.0949 8.77817C50.4341 3.11746 42.9079 0 34.9025 0C23.0275 0 11.329 3.16266 1.07173 9.14608C0.561632 9.44366 0.218478 9.961 0.142687 10.5466C0.0668962 11.1323 0.267101 11.7199 0.684777 12.1375L4.75388 16.2066C1.72262 21.9892 0.126945 28.452 0.126945 34.9912V41.3907C0.126945 46.8025 3.77139 51.5845 8.98954 53.0194L51.1428 64.6116C52.0801 64.8695 53.0484 65.0001 54.0204 65.0001C59.1619 65.0001 63.4768 61.4049 64.5908 56.5972L34.3026 45.2391ZM17.2656 41.8945C13.4155 41.8945 10.2832 38.7622 10.2832 34.9121C10.2832 31.062 13.4155 27.9297 17.2656 27.9297C21.1157 27.9297 24.248 31.062 24.248 34.9121C24.248 38.7622 21.1157 41.8945 17.2656 41.8945Z" fill="white"/>
</g>
<defs>
<clipPath id="clip0">
<rect width="65" height="65" fill="white"/>
</clipPath>
</defs>
</svg>
