<svg width="297" height="111" viewBox="0 0 297 111" fill="none" xmlns="http://www.w3.org/2000/svg">
<path d="M0.59751 0C-0.497594 1.10889 -0.163036 6.60637 2.23277 8.74728C10.6949 13.7528 13.6228 23.3593 22.1205 27.2918C23.2469 33.0663 25.3304 37.9108 29.7791 41.3427C35.2917 46.6463 35.0252 54.7777 40.9555 59.676C45.5945 64.0705 49.4939 69.1943 55.2245 72.3876C58.7385 77.6398 61.8857 77.339 64.9649 75.7628C65.9106 75.4062 70.4455 81.2597 69.3867 73.8497C69.7409 68.7368 69.4112 63.3661 70.5585 58.9128C69.0512 58.4378 79.8745 60.0119 74.417 57.4697C74.2623 54.8506 70.8451 52.0279 69.4647 48.4388C64.7527 47.061 61.1721 54.7025 68.1843 53.9779C71.3903 58.5315 61.171 49.4154 63.0289 52.5127C60.5568 48.3807 57.798 45.1979 53.7179 43.0647C57.6542 41.7441 53.4583 39.8679 55.3546 39.3536C56.1934 37.5847 53.7059 32.8981 52.3373 31.6953C49.2925 32.5156 44.4218 27.9706 42.5421 25.7181C40.1327 24.1096 37.4296 22.8323 36.1694 23.7131C32.3582 22.0651 26.5117 15.028 21.2671 11.9073C19.1029 2.95264 11.607 4.47196 5.28559 3.19157C3.14642 1.61829 1.51301 1.59385 0.59751 0ZM204.344 9.00386C203.354 10.0826 201.838 14.0537 203.811 14.3316C204.718 13.0738 206.561 10.0168 204.344 9.00386ZM134.002 9.77257C131.553 15.3296 128.37 20.3959 126.419 26.3508C123.325 32.8728 115.132 26.9116 110.267 28.8493C105.594 34.0242 95.5813 34.1803 93.3769 26.087C90.7784 23.0665 85.4806 35.1604 89.7197 38.5022C88.4195 41.5673 91.1067 45.3362 92.4046 47.6866C96.7387 45.0251 93.2429 51.205 95.8422 51.9743C97.2046 54.4757 95.1377 60.1298 99.3381 58.6567C103.342 59.0301 107.423 58.2554 107.923 62.5436C111.903 62.7495 116.649 57.0478 119.288 62.0205C126.357 59.051 123.902 70.7773 131.1 64.4239C134.271 62.0734 136.84 69.1269 137.482 61.3023C134.774 57.8224 140.653 53.9435 138.086 49.8538C139.809 46.3975 146.636 45.4334 144.995 41.3436C143.014 37.1493 147.202 31.9487 152.081 33.8677C158.365 32.2851 148.453 28.6119 147.336 26.1596C149.963 22.5505 144.464 19.2006 145.559 15.2995C148.15 14.9074 144.447 12.5869 147.227 12.6826C145.74 9.17278 139.037 10.1209 135.599 10.2414C134.999 10.5509 134.487 10.0662 134.002 9.77257ZM84.058 10.8105C78.6431 13.9156 88.7287 18.122 84.5715 11.413L84.3893 11.1998L84.058 10.8105ZM197.385 14.2422C195.143 15.1873 199.574 19.1571 198.935 15.8718C198.701 15.277 198.172 14.2916 197.385 14.2422ZM68.2074 18.5181C65.4118 20.4573 71.1799 21.2825 68.2074 18.5181V18.5181ZM88.5314 18.9693C85.6499 20.6536 90.4186 20.6268 88.5314 18.9693V18.9693ZM3.76437 19.4562C0.26634 21.0917 10.5741 26.0803 7.94683 22.2081C6.75457 21.0977 5.46349 19.6827 3.76437 19.4562ZM195.631 20.2389C193.271 21.803 197.228 23.0455 195.631 20.2389V20.2389ZM215.786 21.2018C212.383 21.1495 212.282 28.3947 215.983 25.4066C216.956 24.3906 217.324 21.8291 215.786 21.2018ZM12.9582 23.9872C10.0846 25.5417 16.2009 26.1189 12.9582 23.9872V23.9872ZM212.196 24.3616C205.632 27.4757 209.687 35.1253 209.074 40.3247C206.533 39.4471 205.313 41.9575 206.825 44.2839C208.065 44.0765 209.29 44.8559 210.815 44.8955C214.254 44.1014 216.391 45.601 212.891 41.4272C207.219 31.814 224.211 41.5966 215.757 34.4757C213.309 34.7198 221.402 24.4069 213.306 29.502C210.899 28.8185 213.848 24.7528 212.196 24.3616ZM193.029 27.3602C189.554 29.5785 186.558 34.1902 181.787 32.3786C177.091 33.007 172.245 31.521 167.893 30.1284C164.688 27.6938 164.819 35.5785 162.729 32.2061C160.103 33.2186 157.618 37.6652 158.187 40.4322C157.649 48.1559 150.564 54.9771 153.234 62.3064C157.53 60.6593 157.919 65.7916 157.011 69.328C154.472 73.4589 157.444 78.1941 162.235 75.8654C165.99 76.6842 161.938 69.7794 163.33 67.1763C162.309 63.5511 163.11 52.2892 166.874 59.0921C163.573 62.2725 169.355 64.3505 170.169 66.4627C167.753 76.6672 181.913 63.3924 174.999 72.2584C174.761 76.5577 179.96 77.4667 181.82 73.5271C179.722 71.4251 181.781 68.9 181.8 65.3191C180.125 64.1097 177.035 65.5241 175.898 62.5649C176.992 59.9472 177.597 59.3528 174.792 56.8785C169.226 52.7565 171.751 50.1482 177.468 47.3091C179.873 46.7604 186.543 43.998 180.638 42.1489C176.769 43.2368 172.907 44.284 169.474 44.6267C166.651 52.3019 158.911 41.9598 161.871 37.9071C169.693 32.8694 181.149 39.3156 189.664 35.9541C190.86 33.3697 197.585 29.4451 193.029 27.3602H193.029ZM21.203 27.4885C18.2235 28.6853 24.5576 28.7966 21.203 27.4885V27.4885ZM13.9488 28.6334C8.20853 32.2359 21.7288 38.418 16.6185 30.7332C15.324 30.4847 15.3698 28.4414 13.9488 28.6334ZM58.6253 30.7504C53.9357 29.3237 56.0572 34.6362 58.4281 33.879C59.3114 32.6048 65.2584 33.2633 58.6253 30.7504ZM60.1285 36.7304C57.3573 39.4458 58.4195 46.2005 61.4913 41.1194C66.0426 43.3998 60.8846 37.4016 60.1285 36.7304ZM22.3831 37.2403C17.8932 39.0862 27.5272 38.3705 22.3831 37.2403V37.2403ZM220.336 38.2294C220.603 41.9201 226.088 41.1498 220.336 38.2294V38.2294ZM19.7854 38.5948C18.6382 39.9108 20.919 45.5648 21.8864 41.4918C21.9192 40.2875 21.2622 38.5399 19.7854 38.5948ZM230.093 38.6824C222.214 39.4741 230.547 44.7961 234.143 41.0473C234.428 39.1633 231.434 38.6554 230.093 38.6824ZM173.044 40.4782C165.6 43.9172 176.775 42.9 173.044 40.4782V40.4782ZM240.487 40.8793C236.898 40.704 232.294 47.6437 231.554 43.765C230.175 42.7725 225.41 45.0028 228.647 45.5294C232.19 49.6804 237.896 49.2964 240.612 54.1292C243.483 52.6967 252.98 55.3204 246.952 54.4694C244.146 55.5074 241.504 56.5935 238.276 56.4322C235.564 57.4139 243.798 62.6732 241.956 60.5234C241.641 65.6342 249.958 70.1737 247.946 63.5924C252.452 63.8481 257.362 69.0379 262.971 69.0798C270.694 71.2176 279.978 75.0283 280.41 84.0323C281.576 88.2664 273.639 88.3956 274.299 93.6264C275.49 95.1767 281.312 94.9743 283.207 93.86C287.595 90.1842 292.936 96.0432 296.334 99.2767C296.565 84.934 296.518 70.5722 296.57 56.201C292.306 53.0745 286.52 54.0549 281.982 50.6767C278.492 48.1796 271.784 46.8939 270.357 52.2494C266.632 52.1075 265.365 54.7265 263.308 57.088C261.361 61.5857 257.172 60.0805 255.951 57.4611C252.655 54.5135 252.683 50.3996 251.859 44.8815C250.023 42.3149 243.757 41.6706 240.487 40.8793ZM260.097 42.6209C259.441 44.0961 264.794 49.3455 266.821 46.0905C264.73 44.6034 263.049 42.4864 260.097 42.6209ZM23.4381 44.409C19.2966 45.606 23.0842 51.1024 25.6682 51.1365C28.536 49.8092 24.3707 45.5386 23.4381 44.409ZM256.852 44.6295C253.728 46.3356 259.276 48.0833 257.461 45.0536L256.852 44.6295ZM209.151 46.1C207.103 48.0699 208.171 51.9315 211.874 50.2318C216.303 49.9817 210.136 46.913 209.151 46.1ZM224.004 46.1C220.883 47.6114 227.204 47.2423 224.004 46.1V46.1ZM179.754 46.1027C174.724 48.8986 182.802 51.6251 183.731 47.6266C183.461 45.9388 180.825 46.6191 179.754 46.1027ZM88.2763 48.7241C85.2262 50.9021 91.7746 49.7964 88.5913 48.7418C88.4869 48.7121 88.3813 48.729 88.2763 48.7241ZM261.403 48.9847C256.839 50.3502 269.838 53.0862 270.216 50.6044C267.935 48.8021 264.187 49.4418 261.403 48.9847ZM189.703 49.1256C183.654 55.8604 198.33 48.4042 198.591 54.28C200.649 55.9379 203.37 47.0034 196.158 49.949C193.988 49.8232 191.889 49.1644 189.703 49.1256ZM226.885 49.5629C220.192 48.8172 225.312 55.409 228.179 51.706C228.422 50.797 228.052 49.542 226.885 49.5629ZM28.1607 51.883C28.0786 53.9747 31.1045 56.9399 32.6613 59.5793C36.2484 62.8969 32.6386 54.3568 30.3614 53.9548C29.9892 52.9801 29.3248 51.9874 28.1607 51.883ZM82.03 55.0957C76.276 56.0779 82.6865 64.244 84.8883 58.1263C85.418 56.6152 83.0979 55.4865 82.03 55.0957ZM221.686 56.6548C218.616 58.795 214.158 54.8761 211.603 58.6848C204.87 61.2429 212.505 59.8641 211.525 63.656C214.376 64.081 217.345 62.5701 218.251 60.6895C222.364 61.8174 226.222 61.5768 230.254 64.4008C232.472 63.0278 229.431 59.8892 228.385 58.4159C226.348 57.3206 223.846 57.5786 221.686 56.6548H221.686ZM203.21 58.2749C195.434 57.1217 200.676 66.8101 205.631 63.6574C210.667 62.7046 205.869 58.1276 203.21 58.2749ZM173.031 71.5867C169.242 73.1847 176.002 77.8952 173.593 72.2059C173.479 71.9427 173.297 71.7086 173.031 71.5867ZM183.467 72.7755C180.338 74.9725 187.177 74.2037 183.467 72.7755V72.7755ZM45.0251 73.0858C42.2058 74.9745 50.9975 75.6517 45.1412 73.0901C45.1026 73.0781 45.0638 73.0897 45.0251 73.0858ZM245.79 73.1164C244.229 76.0063 239.093 75.8959 244.058 78.1616C244.36 76.9489 247.683 74.303 245.79 73.1164ZM254.626 73.8617C253.934 74.8441 252.896 75.5781 252.157 76.3422C253.191 78.1459 250.018 79.1715 251.25 81.459C249.956 85.7661 254.267 83.5145 255.928 83.0885C256.344 80.6093 257.984 77.2737 254.626 73.8617ZM112.619 75.3237C110.287 75.4452 114.003 79.7433 114.039 75.8939C113.747 75.4085 113.129 75.3541 112.619 75.3237ZM163.48 76.4592C160.157 83.0734 166.628 82.4238 163.668 76.5148L163.48 76.4592ZM70.4933 77.2003C68.5867 77.3649 66.9693 84.3503 65.438 81.6578C61.8996 80.3899 65.5482 86.5112 68.3529 84.1573C73.0099 87.2237 79.3409 90.1412 86.3004 90.111C94.325 88.1116 101.193 95.2368 109.332 93.8667C114.528 94.4595 118.875 93.7616 123.776 96.3345C127.727 98.3467 123.029 92.1918 126.118 94.4492C128.307 97.4217 129.399 96.5026 131.826 97.0612C131.342 94.8038 135.763 92.9442 130.007 91.3423C125.402 93.6515 123.943 87.1623 119.082 88.8631C108.91 87.9713 119.72 86.3435 122.839 84.1717C118.53 82.1812 113.3 85.2849 108.914 83.1767C105.485 83.022 100.429 78.4304 99.2837 83.0952C93.8956 84.7926 87.1773 83.2077 83.4358 79.5562C79.0753 77.929 76.2329 77.2725 71.7391 77.7333C71.1944 77.8469 70.9116 77.3896 70.4933 77.2003V77.2003ZM130.467 83.2056C125.595 86.2333 135.041 85.0129 130.467 83.2056V83.2056ZM164.861 84.6667C162.495 85.7886 168.253 88.9908 167.181 86.3624C163.974 86.5793 166.824 84.8958 164.861 84.6667ZM216.21 84.7042C214.033 85.0271 216.515 87.8576 216.991 85.7169C217.127 85.2362 216.811 84.6289 216.21 84.7042ZM123.993 84.7047C120.751 86.0926 126.433 87.092 123.993 84.7047V84.7047ZM237.013 85.0498C234.302 86.0433 230.067 87.2272 231.953 89.7845C230.971 92.6696 227.489 95.7632 232.775 92.592C235.068 90.4809 237.066 87.0317 238.246 85.5818L237.013 85.0498ZM208.415 87.7028C206.31 88.1522 208.877 90.3611 208.96 88.3004C208.918 88.0225 208.759 87.7454 208.415 87.7028ZM202.706 88.0881C200.924 88.5263 196.377 89.3077 197.721 91.7194C199.504 91.7726 208.361 89.7388 202.706 88.0881ZM223.124 89.2954C220.109 90.8211 225.838 93.227 224.042 89.7579L224.03 89.7456L223.124 89.2954ZM147.981 91.4823C145.276 90.5928 141.283 95.915 139.828 93.6245C137.481 89.2442 130.551 97.4401 135.491 97.6032C139.471 96.1345 141.258 100.835 147.069 97.6606C149.497 96.0012 154.027 98.8397 155.336 95.5696C154.802 92.0311 154.472 92.0085 150.397 92.7917C148.861 93.5517 148.978 91.6715 147.981 91.4823ZM179.048 91.5248C176.583 96.1749 170.975 94.2771 166.551 93.3251C162.467 92.6133 157.725 94.4627 156.039 95.4917C157.026 97.7572 163.357 96.7169 167.771 97.5883C173.717 97.134 180.974 95.4786 185.379 94.1232C186.602 96.6462 194.559 90.4859 193.752 92.8549C189.651 90.9537 184.309 93.7821 179.763 91.8256L179.223 91.5383L179.048 91.5248ZM211.299 91.5343C208.873 92.5281 213.647 94.9747 213.288 92.3807L212.292 91.8171L211.299 91.5343ZM196.77 91.8704C193.465 94.2854 198.979 93.6119 196.77 91.8704V91.8704ZM218.306 91.9643C214.364 93.6007 221.987 93.8181 218.306 91.9643V91.9643ZM205.699 93.0569C198.385 93.5353 192.245 95.9709 186.256 99.8828C184.715 102.243 176.107 110.952 180.296 110.608C183.24 106.034 190.16 107.315 193.392 101.753C197.988 98.8514 203.569 98.061 207.791 94.6756C209.117 93.2277 206.295 93.0901 205.699 93.0569ZM159.68 99.5725C151.78 98.6779 152.63 103.884 158.819 104.301C160.117 107.299 167.499 107.53 165.539 104.051C163.715 102.415 162.021 100.46 159.68 99.5725ZM173.047 106.865C167.542 108.924 175.756 109.795 173.047 106.865V106.865Z" fill="white"/>
</svg>
