<svg width="15" height="15" viewBox="0 0 15 15" fill="none" xmlns="http://www.w3.org/2000/svg">
<path d="M14.232 3.32147L11.0094 0.617294L10.1057 1.68916L13.3283 4.39334L14.232 3.32147ZM4.34003 1.68916L3.4433 0.617294L0.220703 3.31447L1.12443 4.38633L4.34003 1.68916ZM7.57664 4.91876H6.52579V9.12215L9.85347 11.1188L10.3789 10.2571L7.57664 8.59673V4.91876ZM7.22635 2.1165C3.74455 2.1165 0.921268 4.93978 0.921268 8.42159C0.921268 11.9034 3.73754 14.7267 7.22635 14.7267C10.7082 14.7267 13.5314 11.9034 13.5314 8.42159C13.5314 4.93978 10.7082 2.1165 7.22635 2.1165ZM7.22635 13.3255C4.51517 13.3255 2.3224 11.1328 2.3224 8.42159C2.3224 5.7104 4.51517 3.51763 7.22635 3.51763C9.93754 3.51763 12.1303 5.7104 12.1303 8.42159C12.1303 11.1328 9.93754 13.3255 7.22635 13.3255Z" fill="#58585B"/>
</svg>
