<svg width="17" height="16" viewBox="0 0 17 16" fill="none" xmlns="http://www.w3.org/2000/svg">
<path d="M16 0H14C13.7348 0 13.4804 0.105357 13.2929 0.292893C13.1054 0.48043 13 0.734784 13 1C13 1.26522 13.1054 1.51957 13.2929 1.70711C13.4804 1.89464 13.7348 2 14 2H15V14H14C13.7348 14 13.4804 14.1054 13.2929 14.2929C13.1054 14.4804 13 14.7348 13 15C13 15.2652 13.1054 15.5196 13.2929 15.7071C13.4804 15.8946 13.7348 16 14 16H16C16.2652 16 16.5196 15.8946 16.7071 15.7071C16.8946 15.5196 17 15.2652 17 15V1C17 0.734784 16.8946 0.48043 16.7071 0.292893C16.5196 0.105357 16.2652 0 16 0V0ZM8.8 3.4C8.64087 3.18783 8.40397 3.04756 8.14142 3.01005C7.87887 2.97254 7.61217 3.04087 7.4 3.2C7.18783 3.35913 7.04756 3.59603 7.01005 3.85858C6.97254 4.12113 7.04087 4.38783 7.2 4.6L9 7H1C0.734784 7 0.48043 7.10536 0.292893 7.29289C0.105357 7.48043 0 7.73478 0 8C0 8.26522 0.105357 8.51957 0.292893 8.70711C0.48043 8.89464 0.734784 9 1 9H9.09L7.37 11.44C7.29326 11.5475 7.23858 11.6691 7.2091 11.7978C7.17962 11.9266 7.17593 12.0599 7.19825 12.19C7.22056 12.3202 7.26843 12.4446 7.33911 12.5562C7.40978 12.6678 7.50185 12.7642 7.61 12.84C7.78 12.9587 7.98268 13.0216 8.19 13.02C8.34865 13.0193 8.50485 12.9808 8.64569 12.9078C8.78654 12.8347 8.90798 12.7292 9 12.6L11.82 8.6C11.9451 8.42874 12.0126 8.22212 12.0126 8.01C12.0126 7.79788 11.9451 7.59126 11.82 7.42L8.8 3.4Z" fill="#111827"/>
</svg>
