<svg width="26" height="35" viewBox="0 0 26 35" fill="none" xmlns="http://www.w3.org/2000/svg">
<path d="M13.2568 0.000173649C10.9808 -0.00783319 8.11912 0.44322 6.58327 1.17478C4.99585 1.93091 2.73358 3.98438 1.63565 5.66588C0.715814 7.0746 0.162439 9.30171 0.0411482 11.7307C-0.015929 12.4516 -0.0144837 13.1871 0.0508521 13.9322C0.10121 14.8082 0.204138 15.6866 0.369985 16.5412C0.756914 18.535 1.32783 19.5597 7.59193 29.5036C9.59489 32.6832 10.3731 33.6949 11.0352 33.9802C11.2735 34.0829 11.5102 34.1655 11.7448 34.2304C12.0272 34.3222 12.3137 34.3743 12.6009 34.3883C12.8302 34.4201 13.0553 34.4198 13.2783 34.3867C14.5356 34.2845 15.6635 33.5918 16.5142 32.3505C17.5825 30.7915 24.3514 20.0532 24.8618 19.1077C25.3313 18.2379 25.6849 16.4175 25.8537 14.5425C26.0084 13.4806 26.04 12.4361 25.9506 11.504C25.9176 10.6327 25.822 9.88366 25.6527 9.3882C24.9782 7.4146 23.6704 6.98131 22.1596 8.23068L21.3189 8.92601V12.1356C21.3189 15.8758 21.0081 16.7292 18.8866 18.8141C13.8515 23.7624 5.22791 20.617 4.48044 13.5596C4.12607 10.2137 5.85329 7.06171 8.91179 5.47254C10.2423 4.78123 11.023 4.58892 13.3773 4.37265C15.8179 4.14844 16.3021 4.02363 16.7251 3.51023C17.6823 2.34856 17.2431 0.800382 15.8181 0.312184C15.205 0.102108 14.2914 0.00363356 13.2568 0L13.2568 0.000173649ZM20.5377 2.02071C19.853 2.00555 19.1438 2.26873 18.5581 2.91295C17.4741 4.10525 17.4767 5.41233 18.5651 6.48197C19.9096 7.80321 21.986 7.51256 22.8433 5.88337C23.8781 3.91676 22.2876 2.05948 20.5377 2.02071H20.5377ZM12.8826 6.70669C11.499 6.71234 10.0924 7.20188 8.92772 8.2882C5.6365 11.3581 6.66739 16.2963 10.984 18.1389C12.3153 18.7072 13.8962 18.6254 15.4433 17.9084C17.8074 16.8127 18.8592 15.1478 18.8592 12.5019C18.8592 9.02487 15.9265 6.69431 12.8826 6.70669Z" fill="white"/>
</svg>
