<svg width="136" height="180" viewBox="0 0 136 180" fill="none" xmlns="http://www.w3.org/2000/svg">
<path d="M69.3434 0.000908319C57.4378 -0.0409736 42.4692 2.31838 34.4356 6.14501C26.1321 10.1001 14.2987 20.8414 8.55568 29.6369C3.74426 37.0056 0.849682 48.6551 0.215237 61.3603C-0.0833211 65.1316 -0.0757608 68.9789 0.265996 72.876C0.529407 77.4581 1.0678 82.0527 1.93531 86.5231C3.95924 96.9525 6.94555 102.312 39.7116 154.327C50.1887 170.958 54.2595 176.25 57.7228 177.743C58.9691 178.28 60.207 178.712 61.4344 179.052C62.9117 179.531 64.4102 179.804 65.9121 179.877C67.1118 180.044 68.2892 180.042 69.4558 179.869C76.0326 179.334 81.9324 175.711 86.3818 169.218C91.9699 161.063 127.377 104.894 130.046 99.948C132.502 95.3983 134.352 85.8761 135.235 76.0684C136.044 70.514 136.209 65.0502 135.742 60.1748C135.569 55.617 135.069 51.6992 134.183 49.1075C130.655 38.7841 123.814 36.5176 115.912 43.0528L111.514 46.6899V63.4787C111.514 83.0429 109.888 87.5064 98.7915 98.412C72.4542 124.295 27.346 107.843 23.4361 70.9271C21.5825 53.4257 30.6172 36.9382 46.6155 28.6256C53.575 25.0095 57.6587 24.0036 69.9737 22.8723C82.7399 21.6995 85.2726 21.0467 87.4854 18.3612C92.4921 12.2848 90.1949 4.18661 82.741 1.63296C79.5336 0.534105 74.7549 0.0190063 69.3433 0L69.3434 0.000908319ZM107.428 10.5699C103.846 10.4906 100.137 11.8672 97.073 15.237C91.4029 21.4736 91.4168 28.3107 97.11 33.9057C104.142 40.8168 115.004 39.2964 119.488 30.7745C124.901 20.4877 116.581 10.7726 107.428 10.5699H107.428ZM67.3858 35.0812C60.1484 35.1107 52.7908 37.6714 46.6989 43.3537C29.4832 59.4114 34.8756 85.2421 57.4547 94.8804C64.4183 97.8529 72.6878 97.4251 80.7805 93.6745C93.1465 87.9435 98.6482 79.2346 98.6482 65.3943C98.6482 47.207 83.3081 35.0164 67.3858 35.0812Z" fill="#00C1C0"/>
</svg>
