<svg width="67" height="67" viewBox="0 0 67 67" fill="none" xmlns="http://www.w3.org/2000/svg">
<g clip-path="url(#clip0)">
<path d="M65.2572 56.9665L38.9853 30.6944L8.29089 0H5.89211L5.4023 1.2446C4.10954 4.5297 3.55719 7.88964 3.80517 10.9608C4.08782 14.4615 5.41775 17.4924 7.65138 19.726L31.613 43.6877L34.7736 40.5271L56.9261 65.2979C59.1298 67.5016 62.9227 67.6324 65.2572 65.2979C67.5543 63.0008 67.5543 59.2635 65.2572 56.9665Z" fill="white"/>
<path d="M20.5093 38.1379L1.74265 56.9046C-0.554191 59.2015 -0.554191 62.9389 1.74265 65.2358C3.9246 67.4177 7.69924 67.6104 10.0738 65.2358L28.8406 46.469L20.5093 38.1379Z" fill="white"/>
<path d="M64.1542 11.1556L53.5087 21.801L50.7314 19.0239L61.377 8.3784L58.5999 5.60131L47.9545 16.2467L45.1774 13.4696L55.8229 2.82421L53.0459 0.0472412L39.1605 13.9327C37.4618 15.6314 36.4475 17.8869 36.3041 20.284C36.2678 20.8913 36.1301 21.4887 35.9018 22.0569L44.9218 31.0769C45.49 30.8483 46.0875 30.7107 46.6947 30.6745C49.0918 30.5315 51.3473 29.5169 53.0459 27.8182L66.9314 13.9329L64.1542 11.1556Z" fill="white"/>
</g>
<defs>
<clipPath id="clip0">
<rect width="67" height="67" fill="white"/>
</clipPath>
</defs>
</svg>
