<svg width="111" height="105" viewBox="0 0 111 105" fill="none" xmlns="http://www.w3.org/2000/svg">
<path d="M49.95 17.0625L22.2 36.75C19.8875 38.4125 18.5 40.9937 18.5 43.75V83.125C18.5 87.9375 22.6625 91.875 27.75 91.875H83.25C88.3375 91.875 92.5 87.9375 92.5 83.125V43.75C92.5 40.9937 91.1125 38.4125 88.8 36.75L61.05 17.0625C59.4459 15.9333 57.4996 15.3234 55.5 15.3234C53.5004 15.3234 51.5541 15.9333 49.95 17.0625ZM57.8125 54.6875C57.8125 58.3187 54.7137 61.25 50.875 61.25V76.5625C50.875 77.7875 49.8575 78.75 48.5625 78.75C47.2675 78.75 46.25 77.7875 46.25 76.5625V61.25C42.4112 61.25 39.3125 58.3187 39.3125 54.6875V43.75C39.3125 42.525 40.33 41.5625 41.625 41.5625C42.92 41.5625 43.9375 42.525 43.9375 43.75V54.6875H46.25V43.75C46.25 42.525 47.2675 41.5625 48.5625 41.5625C49.8575 41.5625 50.875 42.525 50.875 43.75V54.6875H53.1875V43.75C53.1875 42.525 54.205 41.5625 55.5 41.5625C56.795 41.5625 57.8125 42.525 57.8125 43.75V54.6875ZM67.0625 78.75C65.7675 78.75 64.75 77.7875 64.75 76.5625V63.4375H62.4375C61.1425 63.4375 60.125 62.475 60.125 61.25V50.3125C60.125 46.4625 62.7612 43.1812 66.415 42.0437C67.8487 41.5625 69.375 42.6562 69.375 44.1437V76.5625C69.375 77.7875 68.3575 78.75 67.0625 78.75Z" fill="white"/>
</svg>
