<svg width="82" height="77" viewBox="0 0 82 77" fill="none" xmlns="http://www.w3.org/2000/svg">
<path d="M27.4514 28.3684L38.0182 20.2632H59.6364V28.3684H40.4633L29.8182 36.4737H3.72731V28.3684H27.4514ZM30.8656 48.8747L41.7678 44.5587L44.3173 52.1776L33.415 56.4896C33.9282 60.9383 32.9163 65.4366 30.5724 69.1254C28.2285 72.8142 24.717 75.435 20.7085 76.4871C16.7001 77.5391 12.4756 76.9488 8.84214 74.8289C5.20862 72.709 2.42067 69.208 1.01081 64.9947C-0.399058 60.7813 -0.332032 56.1509 1.19908 51.9879C2.7302 47.8249 5.6181 44.4211 9.31117 42.4265C13.0042 40.432 17.2437 39.9865 21.2197 41.1752C25.1957 42.3639 28.6296 45.1035 30.8656 48.8707V48.8747ZM16.7728 68.8947C19.2441 68.8947 21.6142 67.8273 23.3617 65.9273C25.1092 64.0272 26.0909 61.4502 26.0909 58.7632C26.0909 56.0761 25.1092 53.4991 23.3617 51.599C21.6142 49.699 19.2441 48.6316 16.7728 48.6316C14.3014 48.6316 11.9313 49.699 10.1838 51.599C8.43631 53.4991 7.45458 56.0761 7.45458 58.7632C7.45458 61.4502 8.43631 64.0272 10.1838 65.9273C11.9313 67.8273 14.3014 68.8947 16.7728 68.8947ZM65.2273 77C63.0247 77 60.8436 76.5283 58.8086 75.6118C56.7737 74.6953 54.9247 73.352 53.3672 71.6585C51.8097 69.9651 50.5742 67.9547 49.7313 65.7421C48.8884 63.5295 48.4546 61.1581 48.4546 58.7632C48.4546 56.3683 48.8884 53.9968 49.7313 51.7842C50.5742 49.5716 51.8097 47.5612 53.3672 45.8678C54.9247 44.1743 56.7737 42.831 58.8086 41.9145C60.8436 40.998 63.0247 40.5263 65.2273 40.5263C69.6757 40.5263 73.9419 42.4477 77.0874 45.8678C80.2329 49.2878 82 53.9264 82 58.7632C82 63.5999 80.2329 68.2385 77.0874 71.6585C73.9419 75.0786 69.6757 77 65.2273 77ZM65.2273 68.8947C67.6986 68.8947 70.0687 67.8273 71.8162 65.9273C73.5637 64.0272 74.5455 61.4502 74.5455 58.7632C74.5455 56.0761 73.5637 53.4991 71.8162 51.599C70.0687 49.699 67.6986 48.6316 65.2273 48.6316C62.7559 48.6316 60.3858 49.699 58.6383 51.599C56.8908 53.4991 55.9091 56.0761 55.9091 58.7632C55.9091 61.4502 56.8908 64.0272 58.6383 65.9273C60.3858 67.8273 62.7559 68.8947 65.2273 68.8947ZM11.1819 32.4211H33.5455L43.2364 25.3978L44.28 21.1588L51.4811 23.2581L44.3173 52.1574L37.5262 48.5586L37.966 46.7755L29.8182 52.6842L26.0909 44.5789H11.1819V32.4211ZM56.252 12.1579H70.8182V24.3158H60.3222L67.4786 45.6975L60.4713 48.4695L52.3906 24.3158H52.1818V23.6998L46.9637 8.10526H37.2728V0H52.1818L56.252 12.1579Z" fill="white"/>
</svg>
