<svg width="70" height="70" viewBox="0 0 70 70" fill="none" xmlns="http://www.w3.org/2000/svg">
<path d="M56.1127 42.3088L45.1507 37.0798L40.5153 34.8685C42.5397 33.5931 44.184 31.6247 45.2599 29.2538C46.1574 27.2772 46.6216 25.1315 46.6214 22.9608C46.6214 21.6819 46.4184 20.4674 46.1356 19.2956C44.7566 13.6172 40.3221 9.43396 34.9986 9.43396C29.7759 9.43396 25.4086 13.4681 23.9442 18.9848C23.6061 20.2504 23.3737 21.5664 23.3737 22.9608C23.3737 25.3821 23.9393 27.6396 24.9004 29.6031C26.0113 31.8809 27.6584 33.759 29.6632 34.9665L25.2238 37.0336L13.9062 42.3046C12.9234 42.7652 12.2773 43.874 12.2773 45.1123V57.5478C12.2773 59.2145 13.4386 60.5655 14.8722 60.5655H31.6813V51.0441C31.6837 50.9458 31.7124 50.8501 31.7646 50.7669L31.7576 50.7627L34.5107 45.9943L34.5177 45.9985C34.6157 45.8305 34.79 45.7115 34.9986 45.7115C35.2072 45.7115 35.3815 45.8298 35.4795 45.9985L35.4823 45.9964L35.5075 46.0405C35.511 46.0475 35.5159 46.0531 35.5187 46.0601L38.2354 50.7648L38.2319 50.7669C38.2842 50.8503 38.3129 50.9463 38.3152 51.0448V60.5662H55.1243C56.5579 60.5662 57.7199 59.2152 57.7199 57.5485V45.1123C57.722 43.8782 57.0864 42.7799 56.1127 42.3088V42.3088ZM38.234 39.1203L38.241 39.1245L35.4872 43.8929L35.4802 43.8887C35.4325 43.9746 35.3628 44.0463 35.2783 44.0966C35.1939 44.1469 35.0976 44.1739 34.9993 44.175C34.9011 44.1739 34.8048 44.1469 34.7203 44.0966C34.6359 44.0463 34.5662 43.9746 34.5184 43.8887L34.5149 43.8908L34.4869 43.8425C34.4848 43.8376 34.4806 43.8334 34.4785 43.8285L31.7618 39.1224L31.7646 39.1203C31.7124 39.0368 31.6836 38.9408 31.6813 38.8424C31.6813 38.5309 31.934 38.2782 32.2455 38.2782H37.7517C38.0632 38.2782 38.3159 38.5309 38.3159 38.8424C38.3148 38.9408 38.2865 39.037 38.234 39.1203V39.1203Z" fill="white"/>
</svg>
