<svg width="14" height="15" viewBox="0 0 14 15" fill="none" xmlns="http://www.w3.org/2000/svg">
<path d="M5.12551 6.39978H3.72438V7.80091H5.12551V6.39978ZM7.92777 6.39978H6.52664V7.80091H7.92777V6.39978ZM10.73 6.39978H9.3289V7.80091H10.73V6.39978ZM12.1312 1.49583H11.4306V0.094696H10.0295V1.49583H4.42494V0.094696H3.02381V1.49583H2.32325C1.54562 1.49583 0.929125 2.12633 0.929125 2.89696L0.922119 12.7049C0.922119 13.4755 1.54562 14.106 2.32325 14.106H12.1312C12.9018 14.106 13.5323 13.4755 13.5323 12.7049V2.89696C13.5323 2.12633 12.9018 1.49583 12.1312 1.49583ZM12.1312 12.7049H2.32325V4.99865H12.1312V12.7049Z" fill="#58585B"/>
</svg>
