<svg width="94" height="94" viewBox="0 0 94 94" fill="none" xmlns="http://www.w3.org/2000/svg">
<g clip-path="url(#clip0)">
<path d="M37.7022 94C43.8393 94 48.8144 89.0249 48.8144 82.8879C48.8144 76.7508 43.8393 71.7757 37.7022 71.7757C31.5652 71.7757 26.5901 76.7508 26.5901 82.8879C26.5901 89.0249 31.5652 94 37.7022 94Z" fill="white"/>
<path d="M70.1316 71.7759C63.9946 71.7759 59.0194 76.7511 59.0194 82.888C59.0194 89.025 63.9946 94.0002 70.1316 94.0002C76.2685 94.0002 81.2437 89.025 81.2437 82.888C81.2437 76.7511 76.2685 71.7759 70.1316 71.7759Z" fill="white"/>
<path d="M89.0676 60.4367H31.1256L29.9917 53.8602H77.6153C79.0162 53.8644 80.2766 53.0091 80.7902 51.7058L92.1291 23.1316C92.8181 21.3839 91.9595 19.4084 90.2117 18.7196C89.8113 18.5617 89.3845 18.4814 88.9542 18.4827H24.0955L21.3741 2.83495C21.0947 1.18039 19.6503 -0.0232597 17.9725 0.000215424H4.93269C3.05401 0.000215424 1.53101 1.52322 1.53101 3.4019C1.53101 5.28057 3.05401 6.80358 4.93269 6.80358H15.1377L24.8892 64.4054C25.1687 66.0599 26.6131 67.2636 28.2909 67.2401H89.0676C90.9463 67.2401 92.4693 65.7171 92.4693 63.8384C92.4693 61.9597 90.9463 60.4367 89.0676 60.4367Z" fill="white"/>
</g>
<defs>
<clipPath id="clip0">
<rect width="94" height="94" fill="white"/>
</clipPath>
</defs>
</svg>
