<svg width="81" height="65" viewBox="0 0 81 65" fill="none" xmlns="http://www.w3.org/2000/svg">
<g clip-path="url(#clip0)">
<path d="M35.2984 64.9367L27.5781 62.6896C26.7681 62.4611 26.3125 61.6105 26.5403 60.798L43.816 1.10466C44.0439 0.292156 44.8918 -0.164876 45.7018 0.06364L53.4221 2.31071C54.2321 2.53923 54.6878 3.38981 54.4599 4.20231L37.1842 63.8957C36.9437 64.7082 36.1084 65.1779 35.2984 64.9367V64.9367ZM20.8703 50.6925L26.3757 44.8019C26.9579 44.1799 26.92 43.1896 26.2745 42.6183L14.8079 32.5002L26.2745 22.382C26.92 21.8107 26.9706 20.8205 26.3757 20.1984L20.8703 14.3078C20.3007 13.6984 19.3389 13.6603 18.7187 14.2443L0.48105 31.383C-0.164419 31.9797 -0.164419 33.008 0.48105 33.6047L18.7187 50.756C19.3389 51.34 20.3007 51.3146 20.8703 50.6925V50.6925ZM62.2815 50.7687L80.5192 33.6173C81.1646 33.0207 81.1646 31.9924 80.5192 31.3957L62.2815 14.2316C61.674 13.6603 60.7121 13.6857 60.13 14.2951L54.6245 20.1857C54.0423 20.8078 54.0803 21.798 54.7257 22.3693L66.1923 32.5002L54.7257 42.6183C54.0803 43.1896 54.0296 44.1799 54.6245 44.8019L60.13 50.6925C60.6995 51.3146 61.6614 51.34 62.2815 50.7687V50.7687Z" fill="white"/>
</g>
<defs>
<clipPath id="clip0">
<rect width="81" height="65" fill="white"/>
</clipPath>
</defs>
</svg>
